<svg xmlns="http://www.w3.org/2000/svg" viewBox="0 0 64 64"><defs><linearGradient id="sg" gradientUnits="userSpaceOnUse" x1="4" y1="6" x2="60" y2="56"><stop offset="0" stop-color="#6d4aff"/><stop offset=".55" stop-color="#b04dff"/><stop offset="1" stop-color="#ff4dd8"/></linearGradient><mask id="sm" maskUnits="userSpaceOnUse" x="0" y="0" width="64" height="70"><rect width="64" height="70" fill="#fff"/><g fill="#000"><circle cx="32" cy="28.5" r="6.4"/><path d="M28.4 32.6h7.2L38.6 46H25.4Z"/><rect x="30.7" y="0" width="2.6" height="64"/></g></mask><mask id="sp" maskUnits="userSpaceOnUse" x="0" y="0" width="64" height="70"><rect width="64" height="70" fill="#fff"/><path d="M4 12C16 6 26 8 32 15C38 8 48 6 60 12V50C48 44 38 46 32 54C26 46 16 44 4 50Z" fill="#000" stroke="#000" stroke-width="5" stroke-linejoin="round"/><rect x="30.7" width="2.6" height="70" fill="#000"/></mask></defs><g mask="url(#sp)" opacity=".85"><path transform="translate(0 7)" d="M4 12C16 6 26 8 32 15C38 8 48 6 60 12V50C48 44 38 46 32 54C26 46 16 44 4 50Z" fill="url(#sg)"/></g><path d="M4 12C16 6 26 8 32 15C38 8 48 6 60 12V50C48 44 38 46 32 54C26 46 16 44 4 50Z" fill="url(#sg)" mask="url(#sm)"/></svg>
