<svg xmlns="http://www.w3.org/2000/svg" viewBox="0 0 128 128">
  <rect width="128" height="128" rx="24" fill="#faf7f0"/>
  <path d="M30 96V36c0-2 1-3 3-3l14 3 17-6 17 6 14-3c2 0 3 1 3 3v60c0 2-1 3-3 3l-14-3-17 6-17-6-14 3c-2 0-3-1-3-3z" fill="none" stroke="#2b2722" stroke-width="4" stroke-linejoin="round"/>
  <path d="M64 30v66" stroke="#7c5cff" stroke-width="3"/>
  <path d="M40 50h14M40 62h14M74 50h14M74 62h14M40 74h14M74 74h14" stroke="#6b6152" stroke-width="3" stroke-linecap="round"/>
</svg>
